<?xml version="1.0" standalone="no"?>
<!DOCTYPE svg PUBLIC "-//W3C//DTD SVG 20010904//EN"
 "http://www.w3.org/TR/2001/REC-SVG-20010904/DTD/svg10.dtd">
<svg version="1.0" xmlns="http://www.w3.org/2000/svg"
 width="500.000000pt" height="500.000000pt" viewBox="0 0 500.000000 500.000000"
 preserveAspectRatio="xMidYMid meet">
<metadata>
Created by potrace 1.14, written by Peter Selinger 2001-2017
</metadata>
<g transform="translate(0.000000,500.000000) scale(0.100000,-0.100000)"
fill="#000000" stroke="none">
<path d="M750 4065 l0 -185 185 0 185 0 0 185 0 185 -185 0 -185 0 0 -185z"/>
<path d="M1380 4065 l0 -185 185 0 185 0 0 185 0 185 -185 0 -185 0 0 -185z
m350 0 l0 -165 -162 2 -163 3 -3 163 -2 162 165 0 165 0 0 -165z"/>
<path d="M3250 4065 l0 -185 185 0 185 0 0 185 0 185 -185 0 -185 0 0 -185z"/>
<path d="M3880 4065 l0 -185 185 0 185 0 0 185 0 185 -185 0 -185 0 0 -185z
m350 0 l0 -165 -165 0 -165 0 0 165 0 165 165 0 165 0 0 -165z"/>
<path d="M750 3440 l0 -180 185 0 185 0 0 180 0 180 -185 0 -185 0 0 -180z
m350 0 l0 -160 -165 0 -165 0 0 160 0 160 165 0 165 0 0 -160z"/>
<path d="M1380 3440 l0 -180 185 0 185 0 0 180 0 180 -185 0 -185 0 0 -180z"/>
<path d="M3250 3440 l0 -180 185 0 185 0 0 180 0 180 -185 0 -185 0 0 -180z
m350 0 l0 -160 -165 0 -165 0 0 160 0 160 165 0 165 0 0 -160z"/>
<path d="M3880 3440 l0 -180 185 0 185 0 0 180 0 180 -185 0 -185 0 0 -180z"/>
<path d="M750 2815 l0 -185 185 0 185 0 0 185 0 185 -185 0 -185 0 0 -185z"/>
<path d="M1380 2815 l0 -185 185 0 185 0 0 185 0 185 -185 0 -185 0 0 -185z
m350 0 l0 -165 -165 0 -165 0 0 158 c0 87 3 162 7 165 3 4 78 7 165 7 l158 0
0 -165z"/>
<path d="M2020 2815 l0 -185 185 0 185 0 0 185 0 185 -185 0 -185 0 0 -185z"/>
<path d="M2650 2815 l0 -185 185 0 185 0 0 185 0 185 -185 0 -185 0 0 -185z
m350 0 l0 -165 -165 0 -165 0 0 165 0 165 165 0 165 0 0 -165z"/>
<path d="M3250 2815 l0 -185 185 0 185 0 -2 183 -3 182 -182 3 -183 2 0 -185z"/>
<path d="M3880 2815 l0 -185 185 0 185 0 0 185 0 185 -185 0 -185 0 0 -185z
m350 0 l0 -165 -165 0 -165 0 0 165 0 165 165 0 165 0 0 -165z"/>
<path d="M750 2185 l0 -185 185 0 185 0 0 185 0 185 -185 0 -185 0 0 -185z
m350 0 l0 -165 -165 0 -165 0 0 165 0 165 165 0 165 0 0 -165z"/>
<path d="M1382 2188 l3 -183 183 -3 182 -2 0 185 0 185 -185 0 -185 0 2 -182z"/>
<path d="M2020 2185 l0 -185 185 0 185 0 0 185 0 185 -185 0 -185 0 0 -185z
m348 3 l-3 -163 -162 -3 -163 -2 0 165 0 165 165 0 165 0 -2 -162z"/>
<path d="M2650 2185 l0 -185 185 0 185 0 0 185 0 185 -185 0 -185 0 0 -185z"/>
<path d="M3280 2185 l0 -185 185 0 185 0 0 185 0 185 -185 0 -185 0 0 -185z
m350 0 l0 -165 -162 2 -163 3 -3 163 -2 162 165 0 165 0 0 -165z"/>
<path d="M3880 2185 l0 -185 185 0 185 0 0 185 0 185 -185 0 -185 0 0 -185z"/>
<path d="M750 1560 l0 -180 185 0 185 0 0 180 0 180 -185 0 -185 0 0 -180z"/>
<path d="M1380 1560 l0 -180 185 0 185 0 0 180 0 180 -185 0 -185 0 0 -180z
m350 0 l0 -160 -165 0 -165 0 0 160 0 160 165 0 165 0 0 -160z"/>
<path d="M3280 1560 l0 -180 185 0 185 0 0 180 0 180 -185 0 -185 0 0 -180z"/>
<path d="M3880 1560 l0 -180 185 0 185 0 0 180 0 180 -185 0 -185 0 0 -180z
m350 0 l0 -160 -165 0 -165 0 0 160 0 160 165 0 165 0 0 -160z"/>
<path d="M750 935 l0 -185 185 0 185 0 0 185 0 185 -185 0 -185 0 0 -185z
m350 0 l0 -165 -165 0 -165 0 0 165 0 165 165 0 165 0 0 -165z"/>
<path d="M1380 935 l0 -185 185 0 185 0 0 185 0 185 -185 0 -185 0 0 -185z"/>
<path d="M3280 935 l0 -185 185 0 185 0 0 185 0 185 -185 0 -185 0 0 -185z
m350 0 l0 -165 -165 0 -165 0 0 158 c0 87 3 162 7 165 3 4 78 7 165 7 l158 0
0 -165z"/>
<path d="M3880 935 l0 -185 185 0 185 0 0 185 0 185 -185 0 -185 0 0 -185z"/>
</g>
</svg>
